# xmcd
#
# Track frame offsets:
#	150
#	18836
#	40523
#	61715
#	77841
#	96604
#	115451
#	135126
#	156867
#	177496
#	196202
#	214752
#	232092
#	251010
#	268020
#	285267
#	305531
#	323406
#	341448
#
# Disc length: 4791 seconds
#
# Revision: 1
# Processed by: cddbd v1.5.2PL0 Copyright (c) Steve Scherf et al.
# Submitted via: FairStars CD Ripper 1.80
#
DISCID=0112b513
DTITLE=Various Artist - The Very Best of Chilled R&B CD1
DYEAR=2015
DGENRE=R&B
TTITLE0=Beyonce - If I Were a Boy
TTITLE1=Justin Timberlake - Cry Me a River
TTITLE2=R. Kelly -  I Believe I Can Fly
TTITLE3=Alicia Keys - Empire State of Mind (Pt. II) Broken Down
TTITLE4=TLC - Waterfalls
TTITLE5=Usher - Burn
TTITLE6=Jordin Sparks feat Chris Brown - No Air
TTITLE7=En Vogue - Don't Let Go (Love)
TTITLE8=Lauryn Hill - Ex Factor
TTITLE9=Kelly Rowland - Stole
TTITLE10=Mario - Let Me Love You
TTITLE11=Ne Yo - Miss Independent
TTITLE12=Chris Brown - With You
TTITLE13=Ashanti - Foolish
TTITLE14=Shola Ama - You Might Need Somebody
TTITLE15=Brandy - Have You Ever
TTITLE16=Mary J. Blige - Be Without You (Kendu Mix)
TTITLE17=Whitney Houston - My Love Is Your Love
TTITLE18=Fugees - Killing Me Softly
EXTD=
EXTT0=
EXTT1=
EXTT2=
EXTT3=
EXTT4=
EXTT5=
EXTT6=
EXTT7=
EXTT8=
EXTT9=
EXTT10=
EXTT11=
EXTT12=
EXTT13=
EXTT14=
EXTT15=
EXTT16=
EXTT17=
EXTT18=
PLAYORDER=
